<mxfile host="app.diagrams.net" agent="Mozilla/5.0 (Windows NT 10.0; Win64; x64) AppleWebKit/537.36 (KHTML, like Gecko) Chrome/130.0.0.0 Safari/537.36" version="24.8.6">
  <diagram name="Page-1" id="SEh9UVj6TTWNKrk-7VKm">
    <mxGraphModel dx="1887" dy="1248" grid="0" gridSize="10" guides="1" tooltips="1" connect="1" arrows="1" fold="1" page="0" pageScale="1" pageWidth="827" pageHeight="1169" background="none" math="0" shadow="0">
      <root>
        <mxCell id="0" />
        <mxCell id="1" parent="0" />
        <mxCell id="y5lFJaWxc8QFZob6w4_z-1" value="" style="whiteSpace=wrap;html=1;aspect=fixed;" parent="1" vertex="1">
          <mxGeometry x="199" y="501" width="160" height="160" as="geometry" />
        </mxCell>
        <mxCell id="y5lFJaWxc8QFZob6w4_z-2" value="&lt;b&gt;&lt;font style=&quot;font-size: 18px;&quot;&gt;Portal&lt;br&gt;Microservice&lt;/font&gt;&lt;/b&gt;" style="text;html=1;align=center;verticalAlign=middle;whiteSpace=wrap;rounded=0;" parent="1" vertex="1">
          <mxGeometry x="221.5" y="533.5" width="115" height="95" as="geometry" />
        </mxCell>
        <mxCell id="y5lFJaWxc8QFZob6w4_z-3" value="" style="shape=actor;whiteSpace=wrap;html=1;" parent="1" vertex="1">
          <mxGeometry x="50" y="542" width="50" height="65.5" as="geometry" />
        </mxCell>
        <mxCell id="y5lFJaWxc8QFZob6w4_z-5" value="" style="endArrow=classic;startArrow=classic;html=1;rounded=0;entryX=0;entryY=0.5;entryDx=0;entryDy=0;" parent="1" edge="1">
          <mxGeometry width="50" height="50" relative="1" as="geometry">
            <mxPoint x="100" y="580" as="sourcePoint" />
            <mxPoint x="199" y="580.76" as="targetPoint" />
          </mxGeometry>
        </mxCell>
        <mxCell id="y5lFJaWxc8QFZob6w4_z-6" value="" style="whiteSpace=wrap;html=1;aspect=fixed;" parent="1" vertex="1">
          <mxGeometry x="480" y="-21" width="160" height="160" as="geometry" />
        </mxCell>
        <mxCell id="y5lFJaWxc8QFZob6w4_z-7" value="" style="whiteSpace=wrap;html=1;aspect=fixed;" parent="1" vertex="1">
          <mxGeometry x="480" y="501" width="160" height="160" as="geometry" />
        </mxCell>
        <mxCell id="y5lFJaWxc8QFZob6w4_z-8" value="" style="whiteSpace=wrap;html=1;aspect=fixed;" parent="1" vertex="1">
          <mxGeometry x="480" y="699" width="160" height="160" as="geometry" />
        </mxCell>
        <mxCell id="y5lFJaWxc8QFZob6w4_z-9" value="" style="endArrow=classic;startArrow=classic;html=1;rounded=0;entryX=0;entryY=0.5;entryDx=0;entryDy=0;" parent="1" target="y5lFJaWxc8QFZob6w4_z-7" edge="1">
          <mxGeometry width="50" height="50" relative="1" as="geometry">
            <mxPoint x="359" y="581.25" as="sourcePoint" />
            <mxPoint x="419" y="580.75" as="targetPoint" />
            <Array as="points">
              <mxPoint x="389" y="580.75" />
            </Array>
          </mxGeometry>
        </mxCell>
        <mxCell id="y5lFJaWxc8QFZob6w4_z-10" value="" style="endArrow=classic;startArrow=classic;html=1;rounded=0;" parent="1" edge="1">
          <mxGeometry width="50" height="50" relative="1" as="geometry">
            <mxPoint x="280" y="500" as="sourcePoint" />
            <mxPoint x="480" y="61.25" as="targetPoint" />
            <Array as="points">
              <mxPoint x="280" y="61.25" />
              <mxPoint x="390" y="61" />
            </Array>
          </mxGeometry>
        </mxCell>
        <mxCell id="y5lFJaWxc8QFZob6w4_z-11" value="" style="endArrow=classic;startArrow=classic;html=1;rounded=0;exitX=0.5;exitY=1;exitDx=0;exitDy=0;" parent="1" source="y5lFJaWxc8QFZob6w4_z-1" edge="1">
          <mxGeometry width="50" height="50" relative="1" as="geometry">
            <mxPoint x="279" y="619" as="sourcePoint" />
            <mxPoint x="479" y="779" as="targetPoint" />
            <Array as="points">
              <mxPoint x="279" y="779" />
              <mxPoint x="389" y="778.75" />
            </Array>
          </mxGeometry>
        </mxCell>
        <mxCell id="y5lFJaWxc8QFZob6w4_z-12" value="" style="endArrow=classic;startArrow=classic;html=1;rounded=0;entryX=0;entryY=0.5;entryDx=0;entryDy=0;" parent="1" edge="1">
          <mxGeometry width="50" height="50" relative="1" as="geometry">
            <mxPoint x="640" y="779.25" as="sourcePoint" />
            <mxPoint x="720" y="779" as="targetPoint" />
            <Array as="points">
              <mxPoint x="670" y="778.75" />
            </Array>
          </mxGeometry>
        </mxCell>
        <mxCell id="y5lFJaWxc8QFZob6w4_z-13" value="" style="endArrow=classic;startArrow=classic;html=1;rounded=0;entryX=0;entryY=0.5;entryDx=0;entryDy=0;" parent="1" edge="1">
          <mxGeometry width="50" height="50" relative="1" as="geometry">
            <mxPoint x="640" y="581.25" as="sourcePoint" />
            <mxPoint x="720" y="581" as="targetPoint" />
            <Array as="points">
              <mxPoint x="670" y="580.75" />
            </Array>
          </mxGeometry>
        </mxCell>
        <mxCell id="y5lFJaWxc8QFZob6w4_z-17" value="" style="strokeWidth=2;html=1;shape=mxgraph.flowchart.database;whiteSpace=wrap;" parent="1" vertex="1">
          <mxGeometry x="721" y="545.5" width="43" height="70" as="geometry" />
        </mxCell>
        <mxCell id="y5lFJaWxc8QFZob6w4_z-18" value="" style="strokeWidth=2;html=1;shape=mxgraph.flowchart.database;whiteSpace=wrap;" parent="1" vertex="1">
          <mxGeometry x="721" y="744" width="43" height="70" as="geometry" />
        </mxCell>
        <mxCell id="y5lFJaWxc8QFZob6w4_z-19" value="&lt;b&gt;&lt;font style=&quot;font-size: 18px;&quot;&gt;Payment&lt;br&gt;Microservice&lt;/font&gt;&lt;/b&gt;" style="text;html=1;align=center;verticalAlign=middle;whiteSpace=wrap;rounded=0;" parent="1" vertex="1">
          <mxGeometry x="502.5" y="10.5" width="115" height="95" as="geometry" />
        </mxCell>
        <mxCell id="y5lFJaWxc8QFZob6w4_z-20" value="&lt;b&gt;&lt;font style=&quot;font-size: 18px;&quot;&gt;Budget&lt;br&gt;Microservice&lt;/font&gt;&lt;/b&gt;" style="text;html=1;align=center;verticalAlign=middle;whiteSpace=wrap;rounded=0;" parent="1" vertex="1">
          <mxGeometry x="502.5" y="533" width="115" height="95" as="geometry" />
        </mxCell>
        <mxCell id="y5lFJaWxc8QFZob6w4_z-21" value="&lt;b&gt;&lt;font style=&quot;font-size: 18px;&quot;&gt;Authentication&lt;/font&gt;&lt;/b&gt;&lt;div&gt;&lt;b&gt;&lt;font style=&quot;font-size: 18px;&quot;&gt;Microservice&lt;/font&gt;&lt;/b&gt;&lt;/div&gt;" style="text;html=1;align=center;verticalAlign=middle;whiteSpace=wrap;rounded=0;" parent="1" vertex="1">
          <mxGeometry x="502.5" y="731.5" width="115" height="95" as="geometry" />
        </mxCell>
        <mxCell id="y5lFJaWxc8QFZob6w4_z-22" value="Text" style="text;html=1;align=center;verticalAlign=middle;whiteSpace=wrap;rounded=0;" parent="1" vertex="1">
          <mxGeometry x="460" y="-330" width="60" height="30" as="geometry" />
        </mxCell>
        <mxCell id="y5lFJaWxc8QFZob6w4_z-23" value="&lt;font style=&quot;font-size: 10px;&quot;&gt;HTTP request&lt;/font&gt;" style="text;html=1;align=center;verticalAlign=middle;whiteSpace=wrap;rounded=0;" parent="1" vertex="1">
          <mxGeometry x="333.25" y="756" width="82.5" height="30" as="geometry" />
        </mxCell>
        <mxCell id="y5lFJaWxc8QFZob6w4_z-24" value="&lt;font style=&quot;font-size: 10px;&quot;&gt;HTTP request ||&amp;nbsp;&lt;br&gt;Kafka messaging&lt;/font&gt;" style="text;html=1;align=center;verticalAlign=middle;whiteSpace=wrap;rounded=0;" parent="1" vertex="1">
          <mxGeometry x="372" y="549.5" width="91" height="30" as="geometry" />
        </mxCell>
        <mxCell id="y5lFJaWxc8QFZob6w4_z-25" value="&lt;font style=&quot;font-size: 10px;&quot;&gt;Kafka messaging&lt;/font&gt;" style="text;html=1;align=center;verticalAlign=middle;whiteSpace=wrap;rounded=0;" parent="1" vertex="1">
          <mxGeometry x="322" y="38" width="101" height="30" as="geometry" />
        </mxCell>
        <mxCell id="y5lFJaWxc8QFZob6w4_z-27" value="&lt;font style=&quot;font-size: 10px;&quot;&gt;Kafka messaging&lt;/font&gt;" style="text;html=1;align=center;verticalAlign=middle;whiteSpace=wrap;rounded=0;rotation=90;" parent="1" vertex="1">
          <mxGeometry x="524.5" y="428" width="89" height="52" as="geometry" />
        </mxCell>
        <mxCell id="XbRsqDjSk2JQRt8T-cGT-3" value="" style="whiteSpace=wrap;html=1;aspect=fixed;" parent="1" vertex="1">
          <mxGeometry x="480" y="239" width="160" height="160" as="geometry" />
        </mxCell>
        <mxCell id="XbRsqDjSk2JQRt8T-cGT-4" value="" style="endArrow=classic;startArrow=classic;html=1;rounded=0;entryX=0;entryY=0.5;entryDx=0;entryDy=0;" parent="1" edge="1">
          <mxGeometry width="50" height="50" relative="1" as="geometry">
            <mxPoint x="640" y="314.25" as="sourcePoint" />
            <mxPoint x="720" y="314" as="targetPoint" />
            <Array as="points">
              <mxPoint x="670" y="313.75" />
            </Array>
          </mxGeometry>
        </mxCell>
        <mxCell id="XbRsqDjSk2JQRt8T-cGT-5" value="&lt;b&gt;&lt;font style=&quot;font-size: 18px;&quot;&gt;Notification&lt;/font&gt;&lt;/b&gt;&lt;div&gt;&lt;b&gt;&lt;font style=&quot;font-size: 18px;&quot;&gt;Microservice&lt;/font&gt;&lt;/b&gt;&lt;/div&gt;" style="text;html=1;align=center;verticalAlign=middle;whiteSpace=wrap;rounded=0;" parent="1" vertex="1">
          <mxGeometry x="502.5" y="266.5" width="115" height="95" as="geometry" />
        </mxCell>
        <mxCell id="XbRsqDjSk2JQRt8T-cGT-6" value="" style="strokeWidth=2;html=1;shape=mxgraph.flowchart.database;whiteSpace=wrap;" parent="1" vertex="1">
          <mxGeometry x="721" y="278" width="43" height="70" as="geometry" />
        </mxCell>
        <mxCell id="XbRsqDjSk2JQRt8T-cGT-13" value="" style="endArrow=classic;startArrow=none;html=1;rounded=0;exitX=0.5;exitY=0;exitDx=0;exitDy=0;entryX=0.5;entryY=1;entryDx=0;entryDy=0;startFill=0;endFill=1;" parent="1" source="y5lFJaWxc8QFZob6w4_z-7" target="XbRsqDjSk2JQRt8T-cGT-3" edge="1">
          <mxGeometry width="50" height="50" relative="1" as="geometry">
            <mxPoint x="513" y="472" as="sourcePoint" />
            <mxPoint x="563" y="422" as="targetPoint" />
          </mxGeometry>
        </mxCell>
        <mxCell id="XbRsqDjSk2JQRt8T-cGT-14" value="&lt;font style=&quot;font-size: 10px;&quot;&gt;Kafka messaging&lt;/font&gt;" style="text;html=1;align=center;verticalAlign=middle;whiteSpace=wrap;rounded=0;rotation=90;" parent="1" vertex="1">
          <mxGeometry x="524.5" y="159" width="89" height="52" as="geometry" />
        </mxCell>
        <mxCell id="XbRsqDjSk2JQRt8T-cGT-15" value="" style="endArrow=none;startArrow=classic;html=1;rounded=0;entryX=0.5;entryY=1;entryDx=0;entryDy=0;exitX=0.5;exitY=0;exitDx=0;exitDy=0;startFill=1;endFill=0;" parent="1" source="XbRsqDjSk2JQRt8T-cGT-3" target="y5lFJaWxc8QFZob6w4_z-6" edge="1">
          <mxGeometry width="50" height="50" relative="1" as="geometry">
            <mxPoint x="465" y="200" as="sourcePoint" />
            <mxPoint x="515" y="150" as="targetPoint" />
          </mxGeometry>
        </mxCell>
        <mxCell id="XbRsqDjSk2JQRt8T-cGT-16" value="&lt;font style=&quot;font-size: 10px;&quot;&gt;HTTP request&lt;/font&gt;" style="text;html=1;align=center;verticalAlign=middle;whiteSpace=wrap;rounded=0;" parent="1" vertex="1">
          <mxGeometry x="109.5" y="557" width="82.5" height="30" as="geometry" />
        </mxCell>
        <mxCell id="XbRsqDjSk2JQRt8T-cGT-18" value="" style="endArrow=classic;html=1;rounded=0;startArrow=classic;startFill=1;" parent="1" edge="1">
          <mxGeometry width="50" height="50" relative="1" as="geometry">
            <mxPoint x="520" y="140" as="sourcePoint" />
            <mxPoint x="520" y="500" as="targetPoint" />
            <Array as="points">
              <mxPoint x="520" y="200" />
              <mxPoint x="400" y="200" />
              <mxPoint x="400" y="440" />
              <mxPoint x="520" y="440" />
            </Array>
          </mxGeometry>
        </mxCell>
        <mxCell id="XbRsqDjSk2JQRt8T-cGT-19" value="&lt;font style=&quot;font-size: 10px;&quot;&gt;Kafka messaging&lt;/font&gt;" style="text;html=1;align=center;verticalAlign=middle;whiteSpace=wrap;rounded=0;rotation=90;" parent="1" vertex="1">
          <mxGeometry x="365" y="296" width="89" height="52" as="geometry" />
        </mxCell>
        <mxCell id="OUzyZiWd4LkfnDFV4czM-1" value="" style="endArrow=classic;html=1;rounded=0;" parent="1" edge="1">
          <mxGeometry width="50" height="50" relative="1" as="geometry">
            <mxPoint x="640" y="731" as="sourcePoint" />
            <mxPoint x="640" y="363" as="targetPoint" />
            <Array as="points">
              <mxPoint x="680" y="731" />
              <mxPoint x="679" y="363" />
            </Array>
          </mxGeometry>
        </mxCell>
        <mxCell id="OUzyZiWd4LkfnDFV4czM-2" value="&lt;font style=&quot;font-size: 10px;&quot;&gt;Kafka messaging&lt;/font&gt;" style="text;html=1;align=center;verticalAlign=middle;whiteSpace=wrap;rounded=0;rotation=90;" parent="1" vertex="1">
          <mxGeometry x="645" y="637" width="89" height="52" as="geometry" />
        </mxCell>
        <mxCell id="mx-fiauWX2-0beVSpEYA-1" value="" style="whiteSpace=wrap;html=1;aspect=fixed;" parent="1" vertex="1">
          <mxGeometry x="526" y="-130" width="68" height="68" as="geometry" />
        </mxCell>
        <mxCell id="mx-fiauWX2-0beVSpEYA-2" value="&lt;span style=&quot;font-size: 18px;&quot;&gt;&lt;b&gt;Stripe&lt;br&gt;API&lt;/b&gt;&lt;/span&gt;" style="text;html=1;align=center;verticalAlign=middle;whiteSpace=wrap;rounded=0;" parent="1" vertex="1">
          <mxGeometry x="528.62" y="-124" width="62.75" height="56" as="geometry" />
        </mxCell>
        <mxCell id="mx-fiauWX2-0beVSpEYA-3" value="" style="endArrow=classic;startArrow=classic;html=1;rounded=0;entryX=0.5;entryY=1;entryDx=0;entryDy=0;exitX=0.5;exitY=0;exitDx=0;exitDy=0;" parent="1" source="y5lFJaWxc8QFZob6w4_z-6" target="mx-fiauWX2-0beVSpEYA-1" edge="1">
          <mxGeometry width="50" height="50" relative="1" as="geometry">
            <mxPoint x="560" y="-41.5" as="sourcePoint" />
            <mxPoint x="640" y="-41.75" as="targetPoint" />
            <Array as="points" />
          </mxGeometry>
        </mxCell>
        <mxCell id="AmqTuxdTjo57GEGVRYSg-1" value="" style="endArrow=classic;startArrow=classic;html=1;rounded=0;entryX=0;entryY=0.5;entryDx=0;entryDy=0;" edge="1" parent="1">
          <mxGeometry width="50" height="50" relative="1" as="geometry">
            <mxPoint x="640" y="60.25" as="sourcePoint" />
            <mxPoint x="720" y="60" as="targetPoint" />
            <Array as="points">
              <mxPoint x="670" y="59.75" />
            </Array>
          </mxGeometry>
        </mxCell>
        <mxCell id="AmqTuxdTjo57GEGVRYSg-2" value="" style="strokeWidth=2;html=1;shape=mxgraph.flowchart.database;whiteSpace=wrap;" vertex="1" parent="1">
          <mxGeometry x="721" y="24" width="43" height="70" as="geometry" />
        </mxCell>
      </root>
    </mxGraphModel>
  </diagram>
</mxfile>
